<svg t="1698216695905" class="icon" viewBox="0 0 1024 1024" version="1.1" xmlns="http://www.w3.org/2000/svg" p-id="11866" width="200" height="200"><path d="M345.165 905.107c-82.709 0-149.999-67.29-149.999-150v-490c0-82.71 67.289-150 149.999-150h349.998c82.71 0 150 67.29 150 150v490c0 82.71-67.29 150-150 150H345.165z" fill="#FFFFFF" p-id="11867"></path><path d="M695.163 140.107c33.39 0 64.78 13.002 88.389 36.612 23.609 23.609 36.611 54.999 36.611 88.388v490c0 33.389-13.002 64.779-36.611 88.388-23.609 23.609-55 36.612-88.389 36.612H345.165c-33.389 0-64.779-13.002-88.388-36.612-23.609-23.609-36.611-55-36.611-88.388v-490c0-33.389 13.002-64.779 36.611-88.388s54.999-36.612 88.387-36.612h349.999m0-50H345.165c-96.651 0-174.998 78.351-174.998 175v490c0 96.649 78.348 175 174.998 175h349.998c96.653 0 175-78.351 175-175v-490c0-96.648-78.347-175-175-175z" fill="#1A1A1A" p-id="11868"></path><path d="M677.664 228.212H362.666c-28.994 0-52.5 23.504-52.5 52.498v297.502c0 28.992 23.506 52.498 52.5 52.498h314.998c28.996 0 52.5-23.506 52.5-52.498V280.71c0-28.994-23.504-52.498-52.5-52.498zM520.166 683.21c-38.659 0-70 31.339-70 70 0 38.659 31.341 70.002 70 70.002 38.658 0 70-31.342 70-70.002 0-38.661-31.343-70-70-70z" fill="#FFCD36" p-id="11869"></path></svg>