<svg xmlns="http://www.w3.org/2000/svg" xmlns:xlink="http://www.w3.org/1999/xlink" fill="none" version="1.1" width="40" height="40" viewBox="0 0 40 40"><g><g><path d="M7.083333969116211,20.00003349227905L7.083333969116211,26.049433492279054Q7.083333969116211,31.959133492279054,7.9649839691162105,33.659633492279056Q9.120117969116212,35.88763349227905,11.353403969116211,37.03923349227905Q13.055073969116211,37.916633492279054,19.038433969116213,37.916633492279054L20.003133969116213,37.916633492279054L20.96153396911621,37.916633492279054Q26.94493396911621,37.916633492279054,28.646633969116213,37.03923349227905Q30.879933969116212,35.88763349227905,32.03503396911621,33.659633492279056Q32.91663396911621,31.959133492279054,32.91663396911621,26.049433492279054L32.91663396911621,13.950533492279053Q32.91663396911621,8.040883492279054,32.03503396911621,6.340383492279052Q30.879933969116212,4.1124024922790525,28.646633969116213,2.9608014922790526Q26.94493396911621,2.0833334922790527,20.96153396911621,2.0833334922790527L19.997133969116213,2.0833334922790527L19.038433969116213,2.0833334922790527Q13.055073969116211,2.0833334922790527,11.353403969116211,2.9608014922790526Q9.120115969116211,4.112401492279052,7.964984969116211,6.340383492279052Q7.083333969116211,8.040883492279054,7.083333969116211,13.950533492279053L7.083333969116211,20.00003349227905ZM10.18441396911621,32.508933492279056Q9.583333969116211,31.349533492279054,9.583333969116211,26.049433492279054L9.583333969116211,20.00003349227905L9.583333969116211,13.950533492279053Q9.583333969116211,8.650443492279052,10.18442396911621,7.491083492279053Q10.973233969116212,5.969643492279053,12.49917396911621,5.182783492279053Q13.661693969116211,4.583333492279053,19.038433969116213,4.583333492279053L19.997133969116213,4.583333492279053L20.96153396911621,4.583333492279053Q26.33833396911621,4.583333492279053,27.50083396911621,5.182783492279053Q29.02673396911621,5.969643492279053,29.81553396911621,7.491083492279053Q30.416633969116212,8.650443492279052,30.416633969116212,13.950533492279053L30.416633969116212,26.049433492279054Q30.416633969116212,31.349533492279054,29.81553396911621,32.508933492279056Q29.02673396911621,34.030333492279055,27.50083396911621,34.81723349227905Q26.33833396911621,35.416633492279054,20.96153396911621,35.416633492279054L20.003133969116213,35.416633492279054L19.038433969116213,35.416633492279054Q13.661683969116211,35.416633492279054,12.49917396911621,34.81723349227905Q10.973233969116212,34.030333492279055,10.18441396911621,32.508933492279056ZM21.473133969116212,8.526863492279052Q20.862933969116213,7.916663492279053,20.00003396911621,7.916663492279053Q17.91666396911621,7.916663492279053,17.91666396911621,10.000003492279053Q17.91666396911621,10.862943492279053,18.52683396911621,11.473143492279053Q19.13703396911621,12.083333492279053,20.00003396911621,12.083333492279053Q22.08333396911621,12.083333492279053,22.08333396911621,10.000003492279053Q22.08333396911621,9.137053492279053,21.473133969116212,8.526863492279052ZM16.668853969116213,30.416633492279054L23.33333396911621,30.416633492279054Q23.39473396911621,30.416633492279054,23.455833969116213,30.422733492279054Q23.51693396911621,30.428733492279054,23.57723396911621,30.44073349227905Q23.63743396911621,30.452633492279052,23.69623396911621,30.470533492279053Q23.75493396911621,30.488333492279054,23.81173396911621,30.511833492279052Q23.86843396911621,30.535333492279054,23.92253396911621,30.56423349227905Q23.97673396911621,30.59323349227905,24.02783396911621,30.627333492279053Q24.07883396911621,30.661433492279052,24.12633396911621,30.700433492279053Q24.17383396911621,30.73933349227905,24.21723396911621,30.782733492279053Q24.260633969116213,30.82623349227905,24.29963396911621,30.87363349227905Q24.33853396911621,30.921133492279054,24.37263396911621,30.972233492279052Q24.40683396911621,31.023233492279054,24.43573396911621,31.077433492279052Q24.46463396911621,31.131533492279054,24.488133969116213,31.188333492279053Q24.51163396911621,31.245033492279052,24.529533969116212,31.303833492279054Q24.54733396911621,31.362533492279052,24.55933396911621,31.422833492279054Q24.57133396911621,31.483033492279052,24.57733396911621,31.54413349227905Q24.58333396911621,31.60523349227905,24.58333396911621,31.666633492279054Q24.58333396911621,31.728033492279053,24.57733396911621,31.789233492279052Q24.57133396911621,31.850333492279052,24.55933396911621,31.910533492279054Q24.54733396911621,31.970733492279052,24.529533969116212,32.02953349227906Q24.51163396911621,32.08833349227905,24.488133969116213,32.145033492279055Q24.46463396911621,32.201733492279054,24.43573396911621,32.255933492279055Q24.40683396911621,32.310033492279054,24.37263396911621,32.36113349227905Q24.33853396911621,32.41223349227906,24.29963396911621,32.45963349227905Q24.260633969116213,32.50713349227905,24.21723396911621,32.55053349227905Q24.17383396911621,32.59393349227905,24.12633396911621,32.63293349227905Q24.07883396911621,32.67193349227905,24.02783396911621,32.70603349227905Q23.97673396911621,32.74013349227906,23.92253396911621,32.76903349227905Q23.86843396911621,32.79803349227905,23.81173396911621,32.82153349227905Q23.75493396911621,32.84503349227906,23.69623396911621,32.86283349227905Q23.63743396911621,32.88063349227905,23.57723396911621,32.89263349227905Q23.51693396911621,32.90463349227905,23.455833969116213,32.910633492279054Q23.39473396911621,32.916633492279054,23.33333396911621,32.916633492279054L16.66666396911621,32.916633492279054Q16.60526396911621,32.916633492279054,16.544143969116213,32.910633492279054Q16.48303396911621,32.90463349227905,16.42280396911621,32.89263349227905Q16.362573969116212,32.88063349227905,16.303813969116213,32.86283349227905Q16.24504396911621,32.84503349227906,16.188313969116212,32.82153349227905Q16.13157396911621,32.79803349227905,16.07742396911621,32.76903349227905Q16.02326396911621,32.74013349227906,15.972203969116212,32.70603349227905Q15.921143969116212,32.67193349227905,15.873673969116211,32.63293349227905Q15.82620396911621,32.59393349227905,15.78278396911621,32.55053349227905Q15.739363969116212,32.50713349227905,15.700403969116211,32.45963349227905Q15.66144396911621,32.41223349227906,15.627333969116211,32.36113349227905Q15.59321396911621,32.310033492279054,15.564263969116212,32.255933492279055Q15.53531396911621,32.201733492279054,15.511813969116211,32.145033492279055Q15.488313969116211,32.08833349227905,15.47049396911621,32.02953349227906Q15.45266396911621,31.970733492279052,15.440683969116211,31.910533492279054Q15.42870396911621,31.850333492279052,15.42268396911621,31.789233492279052Q15.416663969116211,31.728033492279053,15.416663969116211,31.666633492279054Q15.416663969116211,31.60523349227905,15.42268396911621,31.54413349227905Q15.42870396911621,31.483033492279052,15.440683969116211,31.422833492279054Q15.45266396911621,31.362533492279052,15.47049396911621,31.303833492279054Q15.488313969116211,31.245033492279052,15.511813969116211,31.188333492279053Q15.53531396911621,31.131533492279054,15.564263969116212,31.077433492279052Q15.59321396911621,31.023233492279054,15.627333969116211,30.972233492279052Q15.66144396911621,30.921133492279054,15.700403969116211,30.87363349227905Q15.739363969116212,30.82623349227905,15.78278396911621,30.782733492279053Q15.82620396911621,30.73933349227905,15.873673969116211,30.700433492279053Q15.921143969116212,30.661433492279052,15.972203969116212,30.627333492279053Q16.02326396911621,30.59323349227905,16.07742396911621,30.56423349227905Q16.13157396911621,30.535333492279054,16.188313969116212,30.511833492279052Q16.24504396911621,30.488333492279054,16.303813969116213,30.470533492279053Q16.362573969116212,30.452633492279052,16.42280396911621,30.44073349227905Q16.48303396911621,30.428733492279054,16.544143969116213,30.422733492279054Q16.60526396911621,30.416633492279054,16.66666396911621,30.416633492279054L16.668853969116213,30.416633492279054Z" fill-rule="evenodd" fill="#000000" fill-opacity="1"/></g></g></svg>