<svg t="1698216748535" class="icon" viewBox="0 0 1024 1024" version="1.1" xmlns="http://www.w3.org/2000/svg" p-id="12857" width="200" height="200"><path d="M505.46 890.45a26.37 26.37 0 0 1-5.93-0.67c-3.2-0.74-79.37-18.74-156.08-74.57-45.51-33.12-81.85-72.76-108-117.8C202.7 641 186.1 576.35 186.1 505.18V270.79a26.39 26.39 0 0 1 17.05-24.68l293-110.86a26.47 26.47 0 0 1 18.68 0l293 110.86a26.38 26.38 0 0 1 17.06 24.68v234.39c0 71.17-16.6 135.84-49.35 192.23-26.15 45-62.49 84.68-108 117.8C590.77 871 514.6 889 511.39 889.78a26.37 26.37 0 0 1-5.93 0.67zM238.89 289v216.18c0 111.27 45.14 200.87 134.17 266.29 56.53 41.53 114.08 60.09 132.4 65.29 18.32-5.2 75.88-23.76 132.41-65.29 89-65.42 134.17-155 134.17-266.29V289L505.46 188.16z" fill="#142E4F" p-id="12858"></path><path d="M485.67 616.26h-0.4a26.38 26.38 0 0 1-18.82-8.3L382 518.21A26.39 26.39 0 0 1 420.43 482l65.81 70 157.6-157.6a26.4 26.4 0 1 1 37.33 37.33L504.33 608.52a26.37 26.37 0 0 1-18.66 7.74z" fill="#FF9600" p-id="12859"></path></svg>