<svg xmlns="http://www.w3.org/2000/svg" xmlns:xlink="http://www.w3.org/1999/xlink" fill="none" version="1.1" width="40" height="40" viewBox="0 0 40 40"><g><g><path d="M29.5833,12.348183253860473Q31.2151,12.566473253860474,31.9842,12.964653253860474Q34.2153,14.119733253860474,35.3696,16.352133253860472Q36.25,18.054733253860473,36.25,24.038433253860475L36.25,24.997333253860475L36.25,25.961533253860473Q36.25,31.945233253860472,35.3696,33.64783325386047Q34.2153,35.880233253860474,31.9842,37.03533325386047Q30.2819,37.916633253860475,24.3535,37.916633253860475L20,37.916633253860475L15.6465,37.916633253860475Q9.71809,37.916633253860475,8.01582,37.03533325386047Q5.784667,35.880233253860474,4.630353,33.64783325386047Q3.75,31.945333253860472,3.75,25.961533253860473L3.75,24.038433253860475Q3.75,18.054733253860473,4.630354,16.352133253860472Q5.784671,14.119733253860474,8.01583,12.964653253860474Q8.78493,12.566473253860474,10.41667,12.348183253860473L10.41667,11.298113253860475Q10.41667,6.778993253860474,11.10413,5.440823253860474Q12.008040000000001,3.6813352538604738,13.76324,2.7744262538604736Q15.1008,2.0833332538604736,19.6876,2.0833332538604736L20.0012,2.0833332538604736L20.3124,2.0833332538604736Q24.8992,2.0833332538604736,26.2368,2.7744262538604736Q27.992,3.6813312538604737,28.8959,5.440823253860474Q29.5833,6.778983253860474,29.5833,11.298113253860475L29.5833,12.348183253860473ZM12.91667,12.139773253860474Q14.14626,12.083333253860474,15.6465,12.083333253860474L20,12.083333253860474L24.3535,12.083333253860474Q25.8538,12.083333253860474,27.0833,12.139773253860474L27.0833,11.298113253860475Q27.0833,7.383593253860473,26.6722,6.583223253860474Q26.1337,5.535203253860473,25.0892,4.995463253860474Q24.2915,4.583333253860474,20.3124,4.583333253860474L20.0012,4.583333253860474L19.6876,4.583333253860474Q15.7085,4.583333253860474,14.91084,4.995463253860474Q13.86625,5.535203253860473,13.32785,6.583223253860474Q12.91667,7.383593253860473,12.91667,11.298113253860475L12.91667,12.139773253860474ZM6.85105,32.49953325386048Q6.25,31.337233253860475,6.25,25.961533253860473L6.25,24.038433253860475Q6.25,18.662833253860473,6.85105,17.50043325386047Q7.64016,15.974333253860474,9.165230000000001,15.184733253860474Q10.3269,14.583333253860474,15.6465,14.583333253860474L20,14.583333253860474L24.3535,14.583333253860474Q29.6731,14.583333253860474,30.8348,15.184733253860474Q32.3598,15.974333253860474,33.149,17.50043325386047Q33.75,18.662833253860473,33.75,24.038433253860475L33.75,24.997333253860475L33.75,25.961533253860473Q33.75,31.337133253860472,33.149,32.49953325386048Q32.3598,34.02563325386048,30.8348,34.81523325386047Q29.6731,35.416633253860475,24.3535,35.416633253860475L20,35.416633253860475L15.6465,35.416633253860475Q10.32688,35.416633253860475,9.165230000000001,34.81523325386047Q7.64016,34.02563325386048,6.85105,32.49953325386048ZM18.75,23.333333253860474Q18.75,23.271933253860475,18.756,23.210833253860475Q18.762,23.149733253860475,18.774,23.089433253860474Q18.786,23.029233253860475,18.803800000000003,22.970433253860474Q18.8216,22.911733253860472,18.845100000000002,22.854933253860473Q18.8686,22.798233253860474,18.8976,22.744133253860472Q18.9265,22.689933253860474,18.9607,22.638833253860472Q18.994799999999998,22.587833253860474,19.0337,22.540333253860474Q19.072699999999998,22.492833253860475,19.1161,22.449433253860473Q19.1595,22.406033253860475,19.207,22.367033253860473Q19.2545,22.328133253860475,19.305500000000002,22.294033253860473Q19.3566,22.259833253860474,19.410800000000002,22.230933253860474Q19.4649,22.201933253860474,19.5216,22.178433253860472Q19.578400000000002,22.154933253860474,19.6371,22.137133253860473Q19.6959,22.119333253860475,19.7561,22.107333253860475Q19.8164,22.095333253860474,19.877499999999998,22.089333253860474Q19.9386,22.083333253860474,20,22.083333253860474Q20.0614,22.083333253860474,20.122500000000002,22.089333253860474Q20.1836,22.095333253860474,20.2439,22.107333253860475Q20.3041,22.119333253860475,20.3629,22.137133253860473Q20.421599999999998,22.154933253860474,20.4784,22.178433253860472Q20.5351,22.201933253860474,20.589199999999998,22.230933253860474Q20.6434,22.259833253860474,20.694499999999998,22.294033253860473Q20.7455,22.328133253860475,20.793,22.367033253860473Q20.8405,22.406033253860475,20.8839,22.449433253860473Q20.927300000000002,22.492833253860475,20.9663,22.540333253860474Q21.0052,22.587833253860474,21.0393,22.638833253860472Q21.0735,22.689933253860474,21.1024,22.744133253860472Q21.1313,22.798233253860474,21.1548,22.854933253860473Q21.1783,22.911733253860472,21.1962,22.970433253860474Q21.214,23.029233253860475,21.226,23.089433253860474Q21.238,23.149733253860475,21.244,23.210833253860475Q21.25,23.271933253860475,21.25,23.333333253860474L21.25,26.666633253860475Q21.25,26.728033253860474,21.244,26.789233253860473Q21.238,26.850333253860473,21.226,26.910533253860475Q21.214,26.970733253860473,21.1962,27.029533253860475Q21.1783,27.088333253860473,21.1548,27.145033253860472Q21.1313,27.201733253860475,21.1024,27.255933253860473Q21.0735,27.310033253860475,21.0393,27.361133253860473Q21.0052,27.412233253860474,20.9663,27.459633253860474Q20.927300000000002,27.507133253860474,20.8839,27.550533253860472Q20.8405,27.593933253860474,20.793,27.632933253860475Q20.7455,27.671933253860473,20.694499999999998,27.706033253860472Q20.6434,27.740133253860474,20.589199999999998,27.769033253860474Q20.5351,27.798033253860474,20.4784,27.821533253860473Q20.421599999999998,27.845033253860475,20.3629,27.862833253860472Q20.3041,27.880633253860474,20.2439,27.892633253860474Q20.1836,27.904633253860474,20.122500000000002,27.910633253860475Q20.0614,27.916633253860475,20,27.916633253860475Q19.9386,27.916633253860475,19.877499999999998,27.910633253860475Q19.8164,27.904633253860474,19.7561,27.892633253860474Q19.6959,27.880633253860474,19.6371,27.862833253860472Q19.578400000000002,27.845033253860475,19.5216,27.821533253860473Q19.4649,27.798033253860474,19.410800000000002,27.769033253860474Q19.3566,27.740133253860474,19.305500000000002,27.706033253860472Q19.2545,27.671933253860473,19.207,27.632933253860475Q19.1595,27.593933253860474,19.1161,27.550533253860472Q19.072699999999998,27.507133253860474,19.0337,27.459633253860474Q18.994799999999998,27.412233253860474,18.9607,27.361133253860473Q18.9265,27.310033253860475,18.8976,27.255933253860473Q18.8687,27.201733253860475,18.845100000000002,27.145033253860472Q18.8217,27.088333253860473,18.803800000000003,27.029533253860475Q18.786,26.970733253860473,18.774,26.910533253860475Q18.762,26.850333253860473,18.756,26.789233253860473Q18.75,26.728033253860474,18.75,26.666633253860475L18.75,23.333333253860474Z" fill-rule="evenodd" fill="#000000" fill-opacity="1"/></g></g></svg>