<svg t="1701395748114" class="icon" viewBox="0 0 1024 1024" version="1.1" xmlns="http://www.w3.org/2000/svg" p-id="4635" width="200" height="200"><path d="M828.704 196.576C744.096 112.384 631.648 66.016 512 66.016s-232.129 46.368-316.737 130.56C110.624 280.8 64 392.832 64 512c0 119.199 46.624 231.2 131.232 315.424 84.608 84.192 197.088 130.56 316.737 130.56s232.129-46.368 316.704-130.56c84.672-84.255 131.296-196.288 131.263-315.455 0.031-119.168-46.561-231.169-131.232-315.393z m-92.703 347.425h-192v192c0 17.696-14.336 32.001-32.001 32.001s-32.001-14.303-32.001-32.001v-192H288.001C270.336 544.001 256 529.665 256 512s14.336-32.001 32.001-32.001h192V288.001c0-17.665 14.336-32.001 32.001-32.001s32.001 14.336 32.001 32.001v192h192c17.696 0 32.001 14.336 32.001 32.001s-14.307 31.999-32.003 31.999z" p-id="4636" fill="#000000"></path></svg>